<?xml version="1.0" encoding="UTF-8"?>
<svg xmlns="http://www.w3.org/2000/svg" version="1.1" xmlns:xlink="http://www.w3.org/1999/xlink" viewBox="0 0 720 720">
  <!-- Generator: Adobe Illustrator 29.0.1, SVG Export Plug-In . SVG Version: 2.1.0 Build 192)  -->
  <defs>
    <style>
      .st0 {
        fill: #3d8b87;
      }

      .st0, .st1, .st2, .st3 {
        mix-blend-mode: screen;
      }

      .st1 {
        fill: #334155;
      }

      .st4 {
        fill: none;
      }

      .st5 {
        isolation: isolate;
      }

      .st2 {
        fill: #d9634a;
      }

      .st3 {
        fill: #c96a30;
      }

      .st6 {
        clip-path: url(#clippath);
      }
    </style>
    <clipPath id="clippath">
      <rect class="st4" width="720" height="720"/>
    </clipPath>
  </defs>
  <g class="st5">
    <g id="Calque_1">
      <g class="st6">
        <g>
          <path class="st1" d="M457.2,491c-5.4-9.3-10.9-20.4-16.3-33.3-5.4-12.9-8.1-29.7-8.1-50.2-.2-20.8,3.7-38.4,11.7-52.8,8-14.4,17.9-27,29.7-37.9,11.8-10.9,23.6-21.2,35.5-31.1,11.9-9.9,21.8-20.6,29.9-32.3,8-11.7,12.1-25.7,12.1-42.3s-6.7-34.1-20.2-45.1c-13.5-11.1-36.8-16.6-70.1-16.6s-34.1,1.9-47.4,5.8c-13.2,3.8-23.5,7.3-30.7,10.5v-89c5.4-3.6,14-6.9,25.8-10,11.8-3.1,25-5.6,39.7-7.5,14.7-1.9,29.1-2.9,43.1-2.9,32.6,0,60.9,3.3,85,10,24.1,6.7,44.1,16.3,60.1,28.9,16,12.6,27.8,27.5,35.5,44.8,7.7,17.3,11.3,36.7,10.9,58.2,0,22-3.4,40.6-10.2,56-6.8,15.4-15.5,28.6-26.2,39.5-10.6,11-22,21-34.1,30-12.1,9.1-23.6,18.3-34.4,27.8-10.9,9.5-19.9,20.3-27.2,32.3-7.2,12-11.2,26.6-11.9,43.8-.7,9.7.3,19.5,3,29.4,2.7,9.8,5.6,21.1,8.5,33.8h-93.7ZM508.1,675.6c-19.2,0-35-6.3-47.4-19-12.3-12.7-18.5-28.5-18.5-47.5-.2-12.7,2.9-24.4,9.3-35.3,6.5-10.9,15.2-19.6,26.2-26.1,11-6.6,23.1-9.9,36.5-9.9,19.7,0,35.5,6.2,47.4,18.7,11.9,12.4,17.8,28.2,17.8,47.2s-3.2,24.5-9.5,35.5c-6.3,11-14.9,19.8-25.6,26.5-10.7,6.7-22.8,10-36.1,10Z"/>
          <path class="st3" d="M254,231.7c5.9,8.8,11.9,19.5,17.9,32.1,6.1,12.6,9.7,29.3,10.7,50.1,1.3,20.8-1.7,38.6-9,53.3-7.3,14.8-16.5,27.9-27.7,39.3-11.2,11.4-22.5,22.4-33.9,32.8-11.4,10.4-20.8,21.7-28.2,33.7-7.4,12-10.7,26.3-9.9,42.8,1,19,8.5,33.7,22.5,44.1,14,10.4,37.6,14.7,70.9,13,18.3-.9,34-3.7,47.2-8.3,13.1-4.6,23.1-8.6,30-11.9l4.5,88.8c-5.2,3.9-13.7,7.7-25.3,11.3-11.6,3.7-24.7,6.8-39.3,9.5-14.6,2.7-28.9,4.4-42.9,5.1-32.6,1.7-61-.2-85.4-5.7-24.4-5.4-44.9-14-61.5-25.8-16.6-11.7-29.1-26.1-37.5-43.1-8.5-17-13.1-36.2-14-57.4-1.1-22.2,1.3-41,7.3-56.6,6-15.6,14-29.2,24.1-40.7,10.1-11.5,20.9-22.1,32.5-31.7,11.6-9.7,22.6-19.5,33-29.6,10.4-10,18.9-21.2,25.5-33.6,6.6-12.4,9.8-27.1,9.6-44.4.2-10-1.3-19.8-4.4-29.5-3.1-9.7-6.5-20.7-10.3-33l93.6-4.8ZM193.8,49.8c19.4-1,35.6,4.5,48.4,16.6,12.9,12,19.8,27.5,20.7,46.5.9,12.6-1.6,24.6-7.5,35.7-5.9,11.2-14.1,20.3-24.8,27.4-10.6,7.1-22.6,11-35.9,11.7-19.7,1-35.7-4.4-48.2-16.2-12.5-11.8-19.2-27.2-20.2-46.2-.6-12.7,1.9-24.6,7.7-35.9,5.8-11.3,13.9-20.5,24.3-27.8,10.4-7.2,22.3-11.2,35.6-11.8Z"/>
          <path class="st0" d="M350.7,302.2l-1.7,394.9-135-6.6,32.9-393.3,103.7,5.1ZM314.5,97.1c19.9,1,35.8,8.5,47.8,22.6,12,14.1,17.5,30.9,16.6,50.6-.4,13.4-4.2,25.6-11.3,36.7-7.1,11.1-16.4,19.9-28,26.3-11.5,6.5-24.3,9.4-38.3,8.7-20.8-1-37-8.4-48.6-22.3-11.6-13.8-16.8-30.6-15.9-50.2.7-13.3,4.5-25.6,11.5-36.8,7-11.2,16.3-20.1,27.8-26.7,11.5-6.6,24.3-9.5,38.3-8.8Z"/>
          <path class="st2" d="M348.7,427.6l-32.3-393.6,135-5.1,1.1,394.7-103.8,3.9h0ZM402.4,628.7c-19.9.7-36.4-5.4-49.6-18.4-13.2-13-20.1-29.3-20.9-49-.7-13.3,2-25.8,8.1-37.5,6.1-11.7,14.7-21.2,25.6-28.6,10.9-7.4,23.4-11.4,37.4-11.9,20.8-.8,37.6,5.2,50.3,18,12.7,12.8,19.4,29,20.2,48.7.5,13.4-2.3,25.9-8.3,37.7-6,11.8-14.5,21.4-25.4,29-10.9,7.5-23.4,11.6-37.4,12.1Z"/>
        </g>
      </g>
    </g>
  </g>
</svg>